/'

    EER model for Patient Assist Project - SYSDAT F25 

    Crow's Foot Notation:
        Type 	        Symbol
        
        Zero or One 	|o--
        Exactly One 	||--
        Zero or Many 	}o--
        One or Many 	}|--

'/

@startuml
/'!theme cerulean'/
skinparam linetype ortho

entity section {
    * id : bigint <<PK>>
    --
    name : varchar
}
entity bed {
    * id : bigint <<PK>>
    --
    * section_id : bigint <<FK>>
    * occupied : bool
    patient_name : varchar
}
entity employee {
    * id : bigint <<PK>>
    --
    role : enum
}

entity event {
    * id : bigint <<PK>>
    --
    time : timestamp
    name : varchar
    description : varchar
}

entity game {
    * id : bigint <<PK>>
    --
    name : varchar
    description : varchar
}

entity score {
    * id : bigint <<PK>>
    --
    value : bigint
    player_name : varchar
    time : timestamp
}

entity game_score {
    * id : bigint <<PK>>
    --
    * player_name : bigint <<FK>>
    * game_id : bigint <<FK>>
    * score_id : bigint <<FK>>
}

entity _order {
    * id : bigint <<PK>>
    --
    * bed_id : bigint <<FK>>
    * time : timestamp
}

entity order_dish {
    * id : bigint <<PK>>
    --
    * order_id : bigint <<FK>>
    * dish_id : bigint <<FK>>
}

entity dish {
    * id : bigint <<PK>>
    --
    name : varchar
    description : varchar
    available_from : date
    available_until : date
}

entity dish_allergen {
    * id : bigint <<PK>>
    --
    * dish_id : bigint <<FK>>
    * allergen_id : bigint <<FK>>
}

entity allergen {
    * id : bigint <<PK>>
    --
    name : varchar
}

entity game_category {
    * id : bigint <<PK>>
    --
    * game_id : bigint <<FK>>
    * category_id : bigint <<FK>>
}

entity category {
    * id : bigint <<PK>>
    --
    name : varchar
    age_group : enum
}

entity training_program {
    * id : bigint <<PK>>
    --
    name : varchar
    description : varchar
}

entity training_program_slide {
    * id : bigint <<PK>>
    --
    * difficulty : int
    * seq_num : int
    * slide_id : bigint <<FK>>
}

entity training_program_video {
    * id : bigint <<PK>>
    --
    * difficulty : int
    * seq_num : int
    * video_id : bigint <<FK>>
}

entity slide {
    * id : bigint <<PK>>
    --
    data : byte[]
}

entity video {
    * id : bigint <<PK>>
    --
    data : byte[]
}

entity employee_section {
    * id : bigint <<PK>>
    --
    * employee_id : bigint <<FK>>
    * section_id : bigint <<FK>>
}

/' 

    RELATIONS
    
'/

_order ||--|{ order_dish
order_dish }o--|| dish

dish ||--o{ dish_allergen
dish_allergen }o--|| allergen

employee ||--|{ employee_section
employee_section }o--|| section

game ||--|{ game_category
game_category }o--|| category
game ||--|{ game_score
game_score }o--|| score

bed }o--|| section

training_program ||--|{ training_program_video
training_program_video }o--|| video
training_program ||--|{ training_program_slide
training_program_slide }o--|| slide

/' 

    NOTES 
    
'/

note left of training_program_video::difficulty
videos may need to be different 
depending on difficulty-level
end note

note left of training_program_video::seq_num
when in the program does it appear
end note

@enduml

